<?xml version="1.0" standalone="no"?>
<!DOCTYPE svg PUBLIC "-//W3C//DTD SVG 20010904//EN"
 "http://www.w3.org/TR/2001/REC-SVG-20010904/DTD/svg10.dtd">
<svg version="1.0" xmlns="http://www.w3.org/2000/svg"
 width="1280.000000pt" height="1280.000000pt" viewBox="0 0 1280.000000 1280.000000"
 preserveAspectRatio="xMidYMid meet">
<metadata>
Created by potrace 1.16, written by Peter Selinger 2001-2019
</metadata>
<g transform="translate(0.000000,1280.000000) scale(0.100000,-0.100000)"
fill="#000000" stroke="none">
<path d="M4641 11565 c-136 -30 -241 -76 -346 -150 -115 -81 -169 -152 -350
-459 -263 -444 -412 -696 -525 -881 -57 -93 -110 -181 -118 -195 l-14 -25 21
24 c12 13 23 22 24 20 4 -4 57 -184 62 -209 2 -8 17 -62 35 -120 17 -58 37
-127 45 -155 25 -91 56 -199 80 -275 12 -41 33 -109 45 -150 12 -41 25 -86 30
-100 5 -14 50 -180 100 -370 50 -190 97 -367 104 -395 13 -45 51 -224 76 -350
29 -143 50 -243 56 -264 5 -17 4 -22 -4 -17 -7 4 -12 14 -12 22 0 22 -25 11
-27 -12 -3 -19 -3 -19 5 0 8 18 9 18 15 2 4 -10 4 -23 0 -28 -4 -7 -1 -8 7 -3
10 6 12 4 7 -9 -4 -10 -7 -20 -7 -22 0 -3 -4 -2 -10 1 -5 3 -10 -1 -10 -9 0
-22 -32 -86 -43 -86 -5 0 -7 -7 -3 -15 3 -9 0 -15 -9 -15 -8 0 -15 9 -15 19 0
11 -4 23 -10 26 -5 3 -8 0 -5 -7 2 -7 7 -26 9 -42 8 -44 23 -54 35 -23 6 15
15 27 20 27 9 0 34 52 38 79 1 8 6 17 11 20 5 3 71 130 147 281 75 151 165
327 200 390 34 63 93 173 131 243 l69 129 6 -1054 c3 -579 7 -1160 8 -1290 l1
-238 364 0 c323 0 365 2 370 16 3 9 5 727 4 1597 -1 870 -5 1526 -8 1457 -3
-74 -7 81 -10 375 -3 474 -4 486 -10 233 -6 -274 -19 -375 -21 -162 0 65 -5
128 -10 139 -6 14 -8 4 -6 -37 1 -39 -2 -59 -10 -63 -9 -3 -13 -29 -13 -80 0
-125 -17 -76 -25 71 -5 97 -11 141 -21 151 -12 12 -14 4 -14 -61 l0 -76 -35 0
-35 0 0 55 0 55 -39 0 c-37 0 -40 2 -43 33 -2 17 -7 31 -13 29 -5 -2 -12 6
-16 16 -6 15 -14 19 -31 16 -13 -2 -17 -1 -9 2 7 4 22 15 32 25 24 24 40 24
32 2 -5 -15 -3 -14 10 2 9 11 17 26 17 33 0 6 6 12 14 12 7 0 19 7 26 15 6 8
15 13 18 12 4 -1 18 6 32 16 74 53 151 96 167 93 17 -4 18 35 18 858 l0 861
-275 2 c-204 1 -292 -2 -339 -12z"/>
<path d="M5436 11448 c-7 -171 -7 -623 0 -710 6 -71 24 -85 24 -19 0 30 4 40
20 44 25 6 26 -1 3 -19 -17 -13 -17 -13 0 -14 12 0 17 -8 17 -32 0 -52 11 -24
13 31 0 28 5 51 10 51 4 0 5 -4 2 -10 -3 -5 3 -10 14 -10 11 0 23 -5 27 -11 5
-8 -1 -10 -20 -7 -32 6 -34 -5 -3 -20 l22 -11 -22 0 c-13 -1 -23 -6 -23 -12 0
-8 13 -9 40 -5 25 4 40 2 40 -4 0 -5 -7 -10 -15 -10 -8 0 -15 -4 -15 -10 0 -5
7 -10 15 -10 8 0 15 5 15 10 0 6 6 10 14 10 9 0 12 7 9 20 -3 11 0 20 6 20 14
0 51 -37 51 -51 0 -6 -9 -9 -20 -6 -13 3 -20 0 -20 -9 0 -10 13 -14 43 -14 24
0 47 -4 53 -9 10 -9 192 -51 222 -51 13 0 14 2 4 9 -14 9 38 21 91 21 17 0 27
5 27 15 0 12 -14 15 -67 14 -53 -1 -61 -3 -38 -9 30 -8 30 -8 3 -9 -43 -2 -58
9 -58 40 0 27 -3 29 -40 29 -35 0 -40 -3 -40 -24 0 -18 -7 -25 -31 -30 -48 -9
-49 -9 -49 39 0 41 -2 45 -25 45 -23 0 -25 4 -25 45 0 29 4 45 12 45 7 0 3 9
-8 21 -21 20 -23 20 -54 4 -26 -13 -30 -19 -19 -27 9 -6 3 -7 -20 -3 -23 5
-31 4 -27 -4 5 -7 1 -8 -10 -4 -15 6 -14 8 7 16 13 5 50 23 82 38 31 16 64 26
71 23 8 -3 17 0 22 7 5 8 3 10 -6 4 -9 -5 -11 -4 -6 3 4 7 11 12 17 12 5 0 33
12 62 26 78 39 229 97 255 98 12 0 22 5 21 10 0 5 35 22 78 39 43 16 87 33 98
38 90 39 621 216 675 225 19 3 44 9 55 14 62 27 577 149 632 150 17 0 33 5 35
11 2 7 36 12 85 13 45 0 74 4 65 7 -21 8 96 19 243 24 137 4 147 6 110 15 -16
4 -640 8 -1386 9 l-1357 1 -6 -132z"/>
<path d="M8356 11515 c-6 -17 35 -31 56 -19 10 5 11 4 1 -7 -7 -7 -13 -18 -13
-23 0 -6 4 -5 9 3 8 12 12 12 25 2 8 -7 20 -10 26 -6 5 3 10 1 10 -4 0 -6 5
-11 11 -11 5 0 7 6 3 13 -4 6 3 2 15 -10 12 -13 29 -23 37 -23 8 0 12 -4 9
-10 -3 -5 6 -12 20 -16 14 -3 25 -10 25 -15 0 -5 13 -17 30 -28 16 -10 27 -21
22 -25 -4 -4 0 -6 8 -4 8 2 14 -3 13 -9 -2 -7 4 -13 12 -13 8 0 15 -7 15 -16
0 -8 4 -12 10 -9 5 3 12 -6 16 -20 3 -14 10 -25 14 -25 5 0 16 -18 26 -39 10
-22 22 -39 28 -38 5 1 11 -2 11 -8 4 -25 20 -53 51 -88 17 -20 38 -61 36 -70
-1 -5 2 -6 8 -2 9 5 14 -15 13 -52 0 -6 5 -9 11 -7 17 7 59 -77 51 -101 -5
-14 -4 -16 3 -7 7 10 13 7 25 -12 10 -14 17 -31 17 -38 0 -8 8 -21 18 -30 35
-33 40 -44 30 -62 -5 -10 -7 -20 -4 -23 3 -4 6 -1 6 5 0 7 5 12 11 12 7 0 9
-9 6 -21 -3 -12 -3 -18 0 -15 11 11 43 -15 43 -35 0 -11 7 -22 15 -25 12 -5
13 -9 4 -20 -10 -12 -8 -13 6 -8 13 5 16 4 11 -5 -5 -7 3 -26 18 -45 38 -50
88 -155 82 -171 -3 -8 -1 -15 4 -15 6 0 10 8 10 18 1 13 4 11 15 -8 17 -30 21
-65 5 -40 -13 21 -12 6 2 -25 6 -14 17 -24 23 -21 7 2 18 0 26 -5 12 -8 12
-10 -1 -19 -13 -9 -13 -10 0 -10 14 0 29 -21 67 -89 14 -25 8 -45 -6 -22 -7
10 -9 10 -14 -2 -4 -11 1 -14 19 -12 29 3 37 -8 37 -49 -1 -17 1 -25 4 -18 4
9 11 6 27 -10 20 -21 21 -26 9 -55 -12 -30 -12 -31 12 -28 20 2 30 -6 51 -42
20 -36 23 -47 13 -59 -6 -8 -9 -17 -5 -21 3 -4 13 2 22 13 8 10 13 14 10 8 -3
-7 1 -17 9 -24 8 -7 15 -18 15 -25 0 -7 9 -24 21 -39 12 -15 18 -34 15 -43 -5
-13 -4 -14 8 -4 11 10 17 6 27 -19 8 -16 18 -30 22 -30 5 0 6 -4 3 -8 -3 -5 3
-18 13 -28 9 -11 15 -26 13 -33 -3 -8 0 -11 5 -8 6 4 18 -13 27 -37 9 -24 28
-56 41 -71 14 -14 33 -43 44 -63 34 -69 51 -97 51 -87 0 6 10 -11 22 -37 11
-27 24 -48 29 -48 5 0 9 -5 9 -11 0 -6 -10 -8 -22 -5 -13 3 -17 3 -10 0 6 -3
10 -10 6 -15 -3 -5 0 -9 6 -9 6 0 10 -6 9 -12 -3 -29 2 -40 16 -34 8 3 14 2
12 -2 -3 -9 35 -47 56 -55 19 -7 23 8 6 19 -6 3 -18 22 -26 42 -11 26 -17 32
-26 23 -6 -6 -18 -11 -26 -11 -13 1 -12 4 3 15 19 15 19 16 -5 67 -13 29 -27
55 -30 58 -3 3 -14 20 -23 38 -9 18 -24 36 -31 39 -8 3 -12 9 -9 15 3 5 -1 17
-9 26 -8 9 -18 27 -21 40 -4 12 -12 22 -17 22 -5 0 -9 6 -9 13 0 11 -46 85
-70 114 -5 7 -10 17 -10 23 0 10 -25 53 -75 130 -21 33 -127 210 -168 283 -10
18 -26 38 -35 45 -9 6 -12 12 -8 12 4 0 -1 15 -12 33 -17 29 -277 464 -305
512 -70 116 -90 144 -99 138 -7 -3 -8 -1 -4 5 7 12 -51 119 -111 204 -18 26
-33 55 -33 63 0 8 -4 15 -9 15 -5 0 -13 10 -17 23 -6 21 -17 38 -94 152 -29
41 -125 145 -135 145 -3 0 -14 8 -25 18 -11 9 -23 16 -25 15 -3 -2 -16 9 -30
23 -20 20 -162 94 -179 94 -2 0 -6 -7 -10 -15z"/>
<path d="M8003 9090 c-12 -5 -31 -17 -42 -27 -12 -10 -26 -18 -31 -18 -6 0
-10 -3 -10 -8 0 -4 -27 -30 -60 -58 -37 -30 -58 -55 -54 -62 4 -7 3 -9 -1 -4
-9 8 -45 -21 -45 -36 0 -6 7 -2 16 9 14 18 15 18 4 -3 -6 -13 -16 -24 -23 -25
-7 0 -17 -2 -24 -2 -18 -2 -53 -38 -47 -48 3 -4 0 -7 -8 -6 -8 2 -12 -5 -10
-17 2 -14 0 -16 -6 -7 -6 9 -27 -7 -75 -57 l-67 -69 2 -1194 3 -1193 23 -30
c43 -57 384 -349 444 -382 25 -14 64 -19 163 -23 84 -3 130 -9 130 -16 0 -6
-34 -40 -75 -75 -41 -35 -90 -80 -110 -100 -19 -20 -71 -63 -115 -95 -44 -32
-102 -76 -130 -99 -178 -148 -625 -469 -680 -489 -18 -6 -18 -8 -4 -16 9 -5
99 -37 200 -70 454 -150 1021 -272 1444 -310 72 -6 154 -15 183 -19 36 -6 57
-5 63 3 5 6 85 142 176 301 91 160 197 343 236 409 38 65 109 187 156 270 48
83 143 246 211 361 128 218 485 829 692 1184 65 112 130 230 144 263 29 69 54
182 54 244 l0 44 -139 0 c-139 0 -176 -5 -166 -21 3 -4 -31 -27 -76 -49 -44
-23 -104 -57 -132 -77 -56 -39 -205 -149 -249 -183 -15 -12 -33 -18 -39 -14
-7 4 -9 3 -6 -3 9 -15 -132 -135 -150 -128 -10 3 -13 1 -10 -9 4 -10 -9 -28
-36 -50 l-41 -34 -34 34 c-36 37 -52 43 -52 19 0 -14 -3 -13 -25 2 -18 14 -24
27 -25 56 0 26 -4 37 -15 37 -11 0 -15 11 -15 40 0 40 0 40 -39 40 -22 0 -41
-5 -43 -12 -3 -9 -6 -9 -12 0 -4 7 -2 12 3 12 6 0 11 18 11 40 l0 40 -40 0
-40 0 0 40 c0 36 3 40 25 40 23 0 25 4 25 40 0 25 -5 40 -12 41 -7 1 1 5 17 9
29 8 29 8 7 15 -18 6 -20 10 -10 16 8 5 -16 9 -59 9 -41 0 -73 4 -73 10 0 6
122 11 333 13 313 2 304 3 -163 7 -427 4 -463 5 -260 10 l235 6 -297 2 c-194
1 -298 -2 -298 -8 0 -5 0 -129 0 -275 0 -146 0 -269 0 -275 0 -6 67 -10 180
-10 l180 0 0 -217 0 -218 -77 -72 -78 -73 -306 0 -306 0 -47 35 -46 36 0 893
0 893 45 42 45 41 333 0 c290 0 334 2 334 15 0 8 -4 15 -9 15 -4 0 -8 -4 -8
-10 0 -5 -5 -10 -11 -10 -5 0 -7 5 -4 10 6 9 -278 17 -372 11 -18 -2 -33 2
-33 8 0 7 39 11 115 11 l115 0 0 45 c0 45 0 45 -40 51 l-40 7 0 63 0 64 -80 0
c-64 0 -80 3 -80 15 0 11 11 15 40 15 39 0 40 1 40 34 0 33 -1 33 -52 40 -29
3 -72 6 -95 6 l-43 0 0 40 c0 22 -4 40 -10 40 -5 0 -10 18 -10 40 0 36 3 40
25 40 18 0 25 5 25 19 0 16 -8 20 -37 23 -34 3 -38 6 -38 31 l1 27 -106 2
-105 1 95 8 c52 4 104 6 115 4 13 -1 15 0 5 4 -8 3 26 9 75 12 50 3 -52 6
-225 6 -173 1 -325 -2 -337 -7z"/>
<path d="M2597 8634 c5 -41 2 -49 -21 -71 -31 -28 -35 -9 -5 23 22 24 20 54
-3 54 -10 0 -9 -3 1 -9 12 -8 12 -12 -2 -25 -9 -9 -20 -17 -24 -16 -4 0 -8 -6
-8 -13 0 -8 -8 -22 -18 -31 -9 -10 -17 -26 -17 -36 0 -11 -8 -24 -17 -29 -22
-11 -55 -66 -46 -75 3 -3 1 -6 -5 -6 -6 0 -17 -11 -24 -25 -7 -14 -64 -110
-126 -215 -62 -104 -121 -209 -132 -233 -39 -88 -52 -174 -47 -307 7 -210 0
-194 379 -835 335 -567 691 -1174 871 -1485 72 -124 152 -263 180 -310 27 -47
95 -166 151 -265 118 -207 303 -528 381 -660 101 -171 241 -293 428 -369 165
-69 108 -67 1812 -65 842 0 1540 3 1553 6 37 9 25 20 -30 27 -78 10 -331 74
-423 107 -205 72 -527 233 -740 369 -279 179 -573 381 -648 446 -12 11 -105
83 -206 160 -101 76 -204 154 -228 173 -37 28 -47 32 -55 20 -8 -11 -9 -11 -5
3 4 12 -15 33 -66 74 -40 32 -93 75 -119 96 -51 41 -63 47 -54 22 3 -9 2 -12
-5 -9 -5 4 -8 14 -5 23 4 12 -16 33 -66 72 -39 30 -75 54 -80 52 -5 -1 -7 2
-4 7 3 5 -4 16 -17 24 -12 9 -38 30 -57 47 -54 48 -90 72 -90 61 0 -6 -7 -11
-15 -11 -20 0 -19 -16 1 -24 22 -9 24 -8 18 9 -8 20 -2 19 26 -5 l24 -20 -25
2 c-20 3 -25 -2 -27 -24 -3 -26 -7 -28 -46 -28 -26 0 -48 -6 -56 -14 -6 -8
-21 -16 -33 -18 -21 -3 -22 -8 -25 -132 -3 -123 -4 -129 -27 -148 -32 -25 -32
-38 0 -38 16 0 25 -6 25 -15 0 -11 -11 -15 -40 -15 -29 0 -40 4 -40 15 0 9 -9
15 -25 15 -22 0 -25 -4 -25 -40 l0 -40 -40 0 c-22 0 -40 -4 -40 -9 0 -5 -16
-9 -35 -9 -19 0 -35 4 -35 9 0 5 -7 9 -15 9 -8 0 -15 -5 -15 -11 0 -5 -5 -7
-10 -4 -6 4 -8 11 -5 16 4 5 -2 6 -12 2 -16 -6 -17 -5 -3 12 14 16 13 17 -8
11 -26 -9 -28 0 -6 25 15 16 14 17 -4 13 -10 -3 -26 2 -35 10 -20 21 -38 20
-30 0 6 -16 -129 81 -135 98 -2 4 -8 8 -14 8 -19 0 -68 42 -62 52 4 6 2 8 -4
4 -6 -3 -42 20 -80 51 -37 32 -86 72 -107 88 -48 37 -190 161 -270 234 -63 58
-195 179 -293 267 l-56 51 -1 1049 c0 577 -3 1033 -6 1014 -4 -19 -7 41 -8
133 0 96 3 166 8 163 5 -3 8 47 6 117 -3 165 -4 169 -15 162 -6 -4 -11 -119
-12 -308 -1 -166 -3 -284 -5 -263 -3 29 -7 36 -14 25 -6 -9 -9 14 -9 67 0 44
-5 85 -11 91 -7 7 -7 13 -1 17 16 9 -9 78 -30 84 -13 3 -18 15 -20 46 -1 39
-1 39 -5 7 -3 -19 1 -44 7 -56 15 -28 9 -147 -7 -153 -10 -3 -13 17 -15 75 -1
43 -3 61 -5 41 -5 -48 -23 -50 -23 -3 0 32 -2 35 -30 35 -26 0 -30 -4 -30 -27
0 -60 -10 -73 -50 -73 -21 0 -41 -6 -43 -12 -4 -9 -14 -4 -31 15 -26 28 -30
49 -26 145 1 39 0 42 -23 42 -14 0 -28 6 -31 13 -5 10 -7 10 -12 0 -3 -7 -12
-13 -19 -13 -7 0 -16 -6 -19 -12 -3 -7 -3 -1 0 15 6 26 5 27 -35 27 -23 0 -41
5 -41 10 0 6 -18 10 -40 10 -29 0 -40 4 -40 15 0 8 7 15 15 15 13 0 13 3 3 22
-7 12 -22 30 -33 40 -12 10 -15 17 -7 18 29 0 9 20 -22 20 -49 0 -82 31 -90
85 -6 34 -3 49 8 60 11 11 15 12 19 2 2 -6 8 -8 13 -4 5 4 2 12 -5 16 -9 6
-11 18 -8 33 7 27 -1 68 -14 68 -4 0 -5 -21 -2 -46z"/>
<path d="M6430 8484 c-8 -2 -118 -15 -244 -29 -126 -14 -235 -30 -243 -36 -18
-16 -17 -43 2 -35 8 3 15 1 15 -4 0 -5 -12 -11 -27 -13 -20 -3 -16 -4 14 -6
l41 -1 4 -119 c1 -66 6 -122 10 -126 5 -6 81 45 167 113 19 15 113 80 209 145
l176 117 -55 -1 c-30 -1 -61 -3 -69 -5z"/>
<path d="M9220 8330 c0 -5 -7 -10 -15 -10 -13 0 -15 -22 -13 -157 l3 -158 160
-1 c155 0 156 0 40 5 l-120 6 1 97 c0 54 -1 97 -2 95 -7 -7 -13 -54 -13 -109
-1 -49 -4 -58 -18 -57 -11 0 -13 3 -5 6 8 3 12 28 11 76 0 50 -3 66 -9 52 -6
-14 -9 3 -11 55 -1 41 -2 83 -1 93 1 9 0 17 -3 17 -3 0 -5 -4 -5 -10z"/>
<path d="M5367 3040 c-104 -27 -205 -99 -241 -173 -68 -138 -36 -275 81 -354
56 -38 115 -60 290 -108 145 -39 177 -58 181 -103 4 -44 -13 -71 -61 -93 -83
-37 -244 -13 -377 57 -38 20 -75 34 -82 31 -7 -3 -31 -40 -53 -82 -46 -90 -45
-94 39 -141 86 -47 176 -74 296 -86 162 -16 293 16 387 96 106 91 134 267 60
377 -52 77 -109 104 -361 170 -127 34 -167 54 -181 93 -20 57 42 113 137 123
60 6 162 -16 247 -53 29 -13 59 -24 65 -24 11 0 86 154 86 176 0 13 -103 61
-174 81 -63 17 -287 26 -339 13z"/>
<path d="M8550 3034 c-183 -48 -336 -190 -386 -359 -25 -85 -24 -220 4 -310
42 -139 149 -263 285 -330 144 -71 345 -72 492 -1 63 30 169 110 187 140 4 7
-26 40 -77 84 l-83 72 -65 -49 c-79 -59 -122 -75 -205 -73 -131 2 -226 62
-279 179 -32 70 -37 194 -9 257 29 69 82 123 154 158 60 30 75 33 152 33 74 0
92 -4 135 -28 28 -15 67 -41 87 -59 l38 -31 67 64 c95 90 94 86 38 135 -64 56
-147 100 -226 119 -80 19 -237 18 -309 -1z"/>
<path d="M2704 3031 c-2 -2 -4 -235 -4 -518 l0 -513 110 0 110 0 2 303 3 302
139 -250 c77 -137 142 -252 147 -255 4 -3 32 -3 63 -2 l56 4 56 101 c31 56 93
169 138 250 l81 148 5 -298 5 -298 110 0 110 0 0 514 0 515 -94 3 c-52 1 -100
-1 -108 -5 -7 -5 -87 -138 -178 -297 -193 -340 -181 -321 -187 -315 -3 3 -50
88 -105 190 -56 102 -132 239 -171 305 l-69 120 -107 0 c-59 0 -109 -2 -112
-4z"/>
<path d="M4351 2978 c-16 -35 -119 -262 -230 -506 -110 -243 -201 -449 -201
-457 0 -12 21 -15 119 -15 127 0 129 1 149 55 16 44 58 145 63 149 2 2 109 5
237 7 l233 4 46 -108 45 -108 122 3 c113 3 121 4 118 22 -4 20 -101 246 -289
671 -64 143 -120 274 -126 290 -18 54 -21 55 -144 55 l-114 0 -28 -62z m149
-220 c0 -5 29 -76 64 -157 35 -80 66 -156 70 -168 l7 -23 -151 0 c-141 0 -152
1 -146 18 52 137 143 349 148 346 5 -3 8 -10 8 -16z"/>
<path d="M6304 3027 c-3 -8 -4 -54 -2 -103 l3 -89 158 -5 158 -5 2 -410 2
-410 122 -3 123 -3 2 413 3 413 160 5 160 5 0 100 0 100 -443 3 c-362 2 -443
0 -448 -11z"/>
<path d="M7294 3029 c-3 -5 -6 -868 -4 -1016 0 -10 86 -13 395 -13 l395 0 0
100 0 100 -275 0 -275 0 0 110 0 110 203 1 c111 1 213 2 227 2 25 2 25 3 25
97 l0 95 -225 5 -225 5 -3 103 -3 102 256 0 c195 0 257 3 260 13 3 6 6 53 7
102 l3 90 -378 0 c-209 0 -381 -3 -383 -6z"/>
<path d="M9244 3025 c-2 -5 -3 -237 -2 -515 l3 -505 120 0 119 0 1 205 1 205
217 3 217 2 2 -207 3 -208 120 0 120 0 3 513 c2 406 0 512 -10 513 -41 4 -220
-1 -228 -6 -6 -4 -9 -23 -8 -43 1 -20 1 -108 0 -195 l-2 -157 -217 2 -218 3
-5 200 -5 199 -114 1 c-67 0 -115 -4 -117 -10z"/>
<path d="M4735 1697 c-142 -48 -214 -130 -223 -258 -7 -95 17 -159 82 -225
105 -104 250 -122 419 -51 l37 16 0 131 0 131 -112 -3 -113 -3 0 -35 c0 -34 1
-35 50 -43 28 -4 54 -12 59 -17 4 -4 5 -26 1 -49 -6 -36 -11 -42 -43 -51 -107
-29 -207 13 -241 103 -16 40 -13 123 4 156 50 97 178 126 284 64 l43 -25 37
36 c45 45 38 59 -43 100 -68 34 -175 44 -241 23z"/>
<path d="M6339 1696 c-191 -51 -282 -243 -195 -414 65 -129 233 -193 382 -146
110 34 204 156 204 264 0 146 -91 264 -227 296 -70 16 -104 17 -164 0z m188
-135 c99 -72 94 -230 -10 -299 -48 -32 -133 -36 -184 -9 -118 63 -124 243 -10
312 63 37 150 35 204 -4z"/>
<path d="M5377 1693 c-3 -5 -4 -132 -3 -283 l1 -275 63 -3 62 -3 0 81 c0 55 4
82 13 85 6 3 34 1 62 -3 48 -7 51 -9 103 -85 30 -43 61 -77 70 -77 9 -1 41 -2
70 -3 37 -2 52 1 52 11 0 7 -27 49 -60 93 -33 44 -60 83 -60 87 1 4 15 16 33
27 46 29 67 77 67 156 0 52 -5 73 -23 100 -30 45 -77 75 -138 88 -57 12 -306
15 -312 4z m310 -123 c23 -14 34 -29 39 -55 14 -79 -39 -118 -154 -113 l-67 3
-3 93 -3 92 78 0 c60 0 86 -5 110 -20z"/>
<path d="M7014 1686 c-3 -9 -4 -100 -2 -203 l3 -188 31 -54 c23 -42 43 -62 85
-85 49 -28 63 -31 139 -31 97 0 145 19 198 79 44 50 54 111 50 316 l-3 175
-57 3 -58 3 0 -181 c0 -163 -2 -185 -21 -221 -40 -79 -149 -91 -208 -23 -35
40 -34 26 -35 249 l-1 170 -58 3 c-44 2 -59 -1 -63 -12z"/>
<path d="M7845 1688 c-3 -7 -4 -135 -3 -283 l3 -270 63 -3 62 -3 0 75 0 74 78
6 c146 11 210 39 253 110 23 37 26 131 5 179 -18 41 -61 81 -111 103 -54 24
-342 34 -350 12z m321 -129 c36 -36 39 -99 6 -131 -19 -20 -35 -23 -112 -26
l-90 -4 0 97 0 97 85 -3 c76 -4 87 -7 111 -30z"/>
</g>
</svg>
