<?xml version="1.0" standalone="no"?>
<!DOCTYPE svg PUBLIC "-//W3C//DTD SVG 20010904//EN"
 "http://www.w3.org/TR/2001/REC-SVG-20010904/DTD/svg10.dtd">
<svg version="1.0" xmlns="http://www.w3.org/2000/svg"
 width="1067.000000pt" height="347.000000pt" viewBox="0 0 1067.000000 347.000000"
 preserveAspectRatio="xMidYMid meet">
<metadata>
Created by potrace 1.16, written by Peter Selinger 2001-2019
</metadata>
<g transform="translate(0.000000,347.000000) scale(0.100000,-0.100000)"
fill="#000000" stroke="none">
<path d="M1100 2840 c-57 -12 -83 -26 -116 -62 -56 -60 -64 -74 -246 -418 -22
-41 -49 -90 -60 -107 -11 -18 -16 -38 -12 -44 4 -7 3 -9 -3 -6 -13 8 -87 -129
-78 -143 4 -6 1 -9 -6 -8 -6 2 -14 -3 -17 -11 -3 -8 0 -11 7 -7 15 9 14 -7 -1
-22 -9 -9 -9 -12 0 -12 7 0 17 11 22 24 5 13 13 27 19 30 14 9 26 -43 14 -55
-7 -7 -9 -1 -5 17 3 19 1 25 -7 20 -6 -4 -11 -13 -11 -20 0 -7 -11 -22 -25
-34 -14 -13 -23 -27 -20 -32 3 -6 1 -10 -5 -10 -7 0 -9 9 -5 23 7 22 7 22 -10
2 -9 -11 -14 -14 -10 -7 3 6 2 12 -2 12 -8 0 -27 -35 -52 -94 -2 -5 2 -5 9 -1
9 6 11 4 6 -4 -5 -7 -11 -10 -14 -7 -3 3 -19 -17 -35 -45 -26 -47 -29 -59 -25
-123 4 -68 7 -76 78 -191 40 -66 97 -160 125 -210 29 -49 99 -171 157 -270 57
-99 130 -226 161 -281 31 -56 73 -116 94 -134 75 -66 65 -65 528 -68 250 -1
415 2 410 7 -16 14 -165 52 -177 45 -7 -5 -8 -2 -3 6 5 9 2 10 -14 5 -12 -4
-21 -2 -21 4 0 6 5 11 11 11 5 0 7 5 3 11 -5 8 -9 8 -14 -1 -6 -9 -13 -9 -31
0 -13 7 -28 18 -32 24 -5 6 -7 2 -4 -12 4 -18 1 -22 -21 -22 -25 0 -25 1 -6
15 19 14 19 14 -3 15 -12 0 -23 -4 -25 -10 -8 -24 -301 108 -451 204 -86 55
-294 225 -360 295 -40 41 -57 67 -53 78 10 36 9 171 -2 253 -13 91 -15 356 -2
285 6 -33 7 -28 9 36 1 72 -1 78 -24 93 -28 18 -33 13 -10 -10 18 -19 19 -33
3 -30 -28 4 -39 18 -34 44 5 20 0 32 -18 47 l-24 20 32 17 c30 17 30 18 9 24
-28 8 -29 54 -2 54 10 0 19 7 21 15 2 10 7 7 15 -10 6 -14 7 -23 2 -19 -5 3
-9 0 -9 -6 0 -6 8 -10 18 -8 13 3 17 12 15 47 -2 38 0 42 18 38 12 -3 19 0 19
10 0 8 -4 12 -9 8 -5 -3 -12 4 -16 15 -3 11 -9 20 -13 20 -4 0 -7 13 -8 30 -1
16 3 27 7 24 5 -3 9 4 9 15 0 11 -4 23 -10 26 -12 7 -13 35 -2 35 5 0 13 -19
19 -42 6 -24 27 -99 47 -168 40 -141 60 -323 31 -286 -21 27 -19 17 10 -48 14
-31 25 -65 25 -75 0 -19 26 -36 33 -23 3 4 33 61 67 127 35 66 67 124 72 130
5 6 9 -100 9 -255 0 -146 4 -301 9 -345 5 -44 9 -83 9 -87 1 -5 45 -8 99 -8
l97 0 -2 811 c-2 445 -5 814 -8 820 -7 10 -123 10 -175 -1z"/>
<path d="M1337 2844 c-4 -4 -7 -63 -7 -131 l0 -124 38 20 c61 34 316 129 441
165 183 53 287 64 371 41 l25 -7 -25 18 c-23 18 -53 19 -430 22 -223 2 -409 0
-413 -4z"/>
<path d="M5714 2470 c-134 -19 -238 -83 -280 -173 -32 -69 -34 -188 -4 -246
45 -88 107 -120 405 -206 72 -20 105 -48 105 -87 0 -62 -66 -85 -217 -75 -65
5 -102 14 -166 42 -95 40 -99 41 -113 18 -33 -54 -64 -115 -64 -127 0 -32 103
-88 225 -122 176 -49 390 -13 482 82 66 68 86 115 86 206 0 65 -4 84 -27 123
-48 81 -108 113 -336 176 -63 17 -127 40 -142 51 -40 28 -38 68 6 106 63 55
182 50 306 -13 27 -14 56 -25 65 -25 13 0 95 145 95 170 0 29 -155 87 -259 95
-36 3 -77 7 -91 9 -14 1 -48 0 -76 -4z"/>
<path d="M8580 2455 c-91 -25 -156 -63 -223 -128 -116 -113 -153 -213 -145
-385 4 -91 8 -108 43 -179 28 -57 58 -97 110 -149 63 -62 81 -74 156 -101 154
-56 288 -51 424 17 62 30 165 113 165 133 0 18 -135 127 -158 127 -5 0 -36
-17 -68 -39 -73 -47 -113 -61 -178 -61 -62 0 -138 34 -183 81 -108 114 -103
318 9 414 113 96 234 103 355 21 37 -25 72 -42 79 -38 6 4 39 33 73 65 48 44
61 62 56 77 -9 28 -130 115 -189 135 -70 25 -252 30 -326 10z"/>
<path d="M4754 2453 c-17 -3 -31 -27 -62 -101 -35 -85 -65 -154 -178 -401 -14
-31 -42 -94 -61 -141 -19 -47 -43 -103 -53 -125 -67 -156 -74 -176 -59 -186
15 -10 171 -12 206 -3 17 5 29 27 54 100 l32 94 214 -2 215 -3 19 -55 c11 -30
26 -71 32 -90 l12 -35 113 -3 c104 -2 112 -1 112 16 0 31 -17 74 -133 332 -60
135 -125 283 -144 330 -19 47 -38 89 -43 95 -5 6 -22 46 -39 90 -17 43 -36 82
-43 87 -13 8 -155 9 -194 1z m135 -371 c12 -24 35 -78 51 -122 l29 -80 -25 -6
c-31 -8 -211 -1 -220 9 -10 10 13 81 57 174 22 45 44 95 50 110 l11 28 13 -36
c7 -19 22 -54 34 -77z"/>
<path d="M6533 2454 c-16 -7 -18 -180 -3 -189 5 -3 66 -7 135 -9 69 -2 128 -6
131 -9 3 -3 6 -170 5 -370 0 -294 3 -368 14 -377 8 -7 51 -10 116 -8 l104 3 3
378 c1 207 3 378 5 378 1 1 65 5 142 8 l140 6 6 85 c3 47 2 90 -3 95 -9 10
-772 19 -795 9z"/>
<path d="M7469 2453 l-47 -4 -7 -372 c-3 -205 -5 -419 -3 -477 l3 -105 355 0
355 0 3 98 3 97 -251 0 -251 0 3 93 3 92 212 3 c156 2 212 6 215 15 2 6 1 50
-2 97 l-5 85 -210 5 -210 5 -3 79 c-2 57 1 82 10 87 7 5 118 9 246 9 l232 0 0
94 0 93 -61 7 c-63 6 -506 5 -590 -1z"/>
<path d="M9253 2452 l-53 -3 -2 -400 c-1 -219 -3 -434 -3 -476 l0 -78 115 0
115 0 5 190 5 190 193 3 192 2 0 -179 c0 -99 3 -186 6 -195 5 -13 24 -16 108
-16 55 0 106 4 111 8 7 4 8 169 5 477 l-5 470 -107 3 -108 3 0 -58 c0 -32 -3
-115 -7 -186 l-6 -127 -191 2 -191 3 -3 183 c-2 164 -4 182 -20 182 -9 1 -37
2 -62 3 -25 2 -69 1 -97 -1z"/>
<path d="M3212 1973 l3 -478 88 -3 c57 -2 94 1 103 9 11 9 14 62 14 278 l0
266 48 -85 c216 -379 209 -370 271 -370 48 0 62 13 105 99 37 72 166 294 190
326 14 18 15 -8 16 -252 l0 -273 89 0 c49 0 96 3 105 6 14 5 16 57 16 480 l0
474 -100 0 c-94 0 -100 -1 -115 -24 -24 -36 -157 -268 -232 -403 -38 -68 -70
-123 -73 -123 -3 0 -21 26 -40 58 -18 31 -60 102 -93 157 -32 55 -89 152 -126
215 l-67 115 -102 3 -102 3 2 -478z"/>
<path d="M2075 2127 c-16 -8 -35 -12 -40 -10 -6 2 -35 -22 -65 -52 l-55 -56
-3 -351 -3 -351 44 -41 c24 -23 65 -52 91 -64 58 -28 57 -30 -68 -115 -117
-79 -124 -84 -168 -105 l-37 -18 28 -17 c56 -33 200 -80 365 -118 93 -22 170
-38 171 -37 1 2 37 68 80 148 43 80 97 174 120 210 69 108 220 397 254 487 19
49 19 53 3 61 -9 4 -57 5 -107 2 -49 -4 -72 -7 -50 -9 l40 -2 -29 -22 c-17
-12 -57 -45 -90 -75 -34 -29 -84 -66 -113 -83 -28 -16 -54 -35 -56 -42 -3 -7
-6 -2 -6 11 -1 30 -21 29 -21 -2 0 -12 -5 -37 -11 -55 l-11 -32 -97 3 -96 3
-3 254 c-2 179 1 258 9 267 8 10 38 14 105 14 102 0 114 -7 114 -65 0 -18 7
-28 26 -35 34 -13 381 -13 389 0 8 13 -76 152 -123 205 -36 41 -81 78 -68 57
11 -18 1 -15 -57 15 -51 27 -57 28 -242 30 -143 2 -197 0 -220 -10z"/>
<path d="M4983 1171 c-62 -29 -128 -94 -153 -153 -18 -42 -21 -65 -17 -115 6
-84 41 -142 114 -191 52 -34 63 -37 139 -41 59 -2 97 2 135 14 82 28 89 39 89
149 0 68 -4 97 -14 105 -9 8 -46 11 -101 9 -78 -3 -89 -5 -95 -24 -13 -33 3
-44 63 -46 l56 -2 7 -45 c10 -64 -13 -81 -113 -81 -112 0 -163 40 -193 150
-16 58 21 137 81 177 58 38 142 39 212 3 l49 -24 19 24 c25 34 25 36 -18 63
-82 51 -184 62 -260 28z"/>
<path d="M6494 1166 c-110 -51 -173 -136 -174 -231 0 -76 16 -118 65 -173 111
-123 294 -128 401 -10 49 55 67 101 67 178 1 78 -22 129 -83 184 -87 78 -181
96 -276 52z m174 -80 c54 -28 102 -101 102 -156 0 -36 -23 -96 -48 -123 -48
-54 -149 -72 -217 -40 -75 36 -113 143 -81 226 16 41 63 84 110 99 38 11 106
8 134 -6z"/>
<path d="M5630 925 l0 -255 40 0 40 0 0 73 c0 41 2 76 4 78 2 2 34 2 70 1 l65
-4 56 -73 c31 -40 63 -76 72 -79 24 -10 71 -7 78 5 4 5 -16 44 -45 85 l-51 74
40 46 c65 74 69 183 8 242 -54 53 -91 62 -242 62 l-135 0 0 -255z m305 150
c19 -18 25 -35 25 -67 0 -82 -43 -108 -177 -108 l-73 0 0 100 0 100 100 0 c94
0 103 -2 125 -25z"/>
<path d="M7162 993 c3 -167 5 -193 24 -228 28 -54 104 -96 188 -102 53 -4 68
-1 116 24 46 23 60 37 83 82 26 53 27 58 27 233 l0 178 -39 0 -39 0 -4 -181
-3 -181 -37 -33 c-47 -43 -95 -53 -153 -31 -77 30 -85 54 -85 255 l0 171 -41
0 -41 0 4 -187z"/>
<path d="M7967 1173 c-4 -3 -7 -118 -7 -254 l0 -247 33 -5 c48 -7 57 6 57 83
l0 68 104 4 c92 3 107 6 144 31 66 43 96 128 73 200 -15 45 -78 103 -128 116
-41 12 -266 15 -276 4z m285 -93 c40 -31 52 -71 34 -113 -23 -56 -69 -72 -198
-68 l-48 1 0 93 c0 52 3 97 7 100 3 4 45 7 93 7 72 0 92 -4 112 -20z"/>
</g>
</svg>
