<?xml version="1.0" standalone="no"?>
<!DOCTYPE svg PUBLIC "-//W3C//DTD SVG 20010904//EN"
 "http://www.w3.org/TR/2001/REC-SVG-20010904/DTD/svg10.dtd">
<svg version="1.0" xmlns="http://www.w3.org/2000/svg"
 width="924.000000pt" height="851.000000pt" viewBox="0 0 924.000000 851.000000"
 preserveAspectRatio="xMidYMid meet">
<metadata>
Created by potrace 1.16, written by Peter Selinger 2001-2019
</metadata>
<g transform="translate(0.000000,851.000000) scale(0.100000,-0.100000)"
fill="#000000" stroke="none">
<path d="M2881 8185 c-136 -30 -241 -76 -346 -150 -115 -81 -169 -152 -350
-459 -263 -444 -412 -696 -525 -881 -57 -93 -110 -181 -118 -195 l-14 -25 21
24 c12 13 23 22 24 20 4 -4 57 -184 62 -209 2 -8 17 -62 35 -120 17 -58 37
-127 45 -155 25 -91 56 -199 80 -275 12 -41 33 -109 45 -150 12 -41 25 -86 30
-100 5 -14 50 -180 100 -370 50 -190 97 -367 104 -395 13 -45 51 -224 76 -350
29 -143 50 -243 56 -264 5 -17 4 -22 -4 -17 -7 4 -12 14 -12 22 0 22 -25 11
-27 -12 -3 -19 -3 -19 5 0 8 18 9 18 15 2 4 -10 4 -23 0 -28 -4 -7 -1 -8 7 -3
10 6 12 4 7 -9 -4 -10 -7 -20 -7 -22 0 -3 -4 -2 -10 1 -5 3 -10 -1 -10 -9 0
-22 -32 -86 -43 -86 -5 0 -7 -7 -3 -15 3 -9 0 -15 -9 -15 -8 0 -15 9 -15 19 0
11 -4 23 -10 26 -5 3 -8 0 -5 -7 2 -7 7 -26 9 -42 7 -41 25 -57 32 -28 4 12
10 22 15 22 11 0 62 100 52 100 -5 0 -3 4 3 8 6 4 73 131 149 282 75 151 165
327 200 390 34 63 93 173 131 243 l69 129 6 -1054 c3 -579 7 -1160 8 -1290 l1
-238 364 0 c323 0 365 2 370 16 3 9 5 761 4 1672 -1 911 -5 1567 -8 1457 -4
-152 -7 -80 -10 300 -3 476 -4 487 -10 233 -6 -274 -19 -375 -21 -162 0 65 -5
128 -10 139 -6 14 -8 4 -6 -37 1 -39 -2 -59 -10 -63 -9 -3 -13 -29 -13 -80 0
-125 -17 -76 -25 71 -5 97 -11 141 -21 151 -12 12 -14 4 -14 -61 l0 -76 -35 0
-35 0 0 55 0 55 -39 0 c-37 0 -40 2 -43 33 -2 17 -7 31 -13 29 -5 -2 -12 6
-16 16 -6 15 -14 19 -31 16 -13 -2 -17 -1 -9 2 7 4 22 15 32 25 24 24 40 24
32 2 -5 -15 -3 -14 10 2 9 11 17 26 17 33 0 6 6 12 14 12 7 0 19 7 26 15 6 8
15 13 18 12 4 -1 18 6 32 16 74 53 151 96 167 93 17 -4 18 35 18 858 l0 861
-275 2 c-204 1 -292 -2 -339 -12z"/>
<path d="M3676 8063 c-7 -156 -6 -741 1 -760 9 -24 23 -2 23 36 0 30 4 40 20
44 25 6 26 -1 3 -19 -17 -13 -17 -13 0 -14 12 0 17 -8 17 -32 0 -52 11 -24 13
31 0 28 5 51 10 51 4 0 5 -4 2 -10 -3 -5 3 -10 14 -10 11 0 23 -5 27 -11 5 -8
-1 -10 -20 -7 -32 6 -34 -5 -3 -20 l22 -11 -22 0 c-13 -1 -23 -6 -23 -12 0 -8
13 -9 40 -5 25 4 40 2 40 -4 0 -5 -7 -10 -15 -10 -8 0 -15 -4 -15 -10 0 -5 7
-10 15 -10 8 0 15 5 15 10 0 6 6 10 14 10 9 0 12 7 9 20 -3 11 0 20 6 20 14 0
51 -37 51 -51 0 -6 -9 -9 -20 -6 -13 3 -20 0 -20 -9 0 -10 13 -14 43 -14 24 0
47 -4 53 -9 10 -9 192 -51 222 -51 13 0 14 2 4 9 -14 9 38 21 91 21 17 0 27 5
27 15 0 12 -14 15 -67 14 -53 -1 -61 -3 -38 -9 30 -8 30 -8 3 -9 -43 -2 -58 9
-58 40 0 27 -3 29 -40 29 -35 0 -40 -3 -40 -24 0 -18 -7 -25 -31 -30 -48 -9
-49 -9 -49 39 0 41 -2 45 -25 45 -23 0 -25 4 -25 45 0 29 4 45 12 45 7 0 3 9
-8 21 -21 20 -23 20 -54 4 -26 -13 -30 -19 -19 -27 9 -6 3 -7 -20 -3 -23 5
-31 4 -27 -4 5 -7 1 -8 -10 -4 -15 6 -14 8 7 16 13 5 50 23 82 38 31 16 64 26
71 23 8 -3 17 0 22 7 5 8 3 10 -6 4 -9 -5 -11 -4 -6 3 4 7 11 12 17 12 5 0 33
12 62 26 78 39 229 97 255 98 12 0 22 5 21 10 0 5 35 22 78 39 43 16 87 33 98
38 90 39 621 216 675 225 19 3 44 9 55 14 62 27 577 149 632 150 17 0 33 5 35
11 2 7 36 12 85 13 45 0 74 4 65 7 -22 8 99 19 248 23 69 2 121 -1 131 -7 13
-8 24 -7 41 1 21 11 20 12 -12 6 -23 -3 -30 -2 -22 4 9 6 -3 11 -40 15 -29 4
-657 7 -1394 7 l-1342 0 -6 -137z"/>
<path d="M6956 7888 c3 -12 13 -29 22 -37 8 -8 19 -27 24 -43 5 -15 15 -26 21
-25 6 1 12 -2 12 -8 4 -25 20 -53 51 -88 17 -20 38 -61 36 -70 -1 -5 2 -6 8
-2 9 5 14 -15 13 -52 0 -6 5 -9 11 -7 17 7 59 -77 51 -101 -5 -14 -4 -16 3 -7
7 10 13 7 25 -12 10 -14 17 -31 17 -38 0 -8 8 -21 18 -30 35 -33 40 -44 30
-62 -5 -10 -7 -20 -4 -23 3 -4 6 -1 6 5 0 7 5 12 11 12 7 0 9 -9 6 -21 -3 -12
-3 -18 0 -15 11 11 43 -15 43 -35 0 -11 7 -22 15 -25 12 -5 13 -9 4 -20 -10
-12 -8 -13 6 -8 13 5 16 4 11 -5 -5 -7 3 -26 18 -45 38 -50 88 -155 82 -171
-3 -8 -1 -15 4 -15 6 0 10 8 10 18 1 13 4 11 15 -8 17 -30 21 -65 5 -40 -13
21 -12 6 2 -25 6 -14 17 -24 23 -21 7 2 18 0 26 -5 12 -8 12 -10 -1 -19 -13
-9 -13 -10 0 -10 14 0 29 -21 67 -89 14 -25 8 -45 -6 -22 -7 10 -9 10 -14 -2
-4 -11 1 -14 19 -12 29 3 37 -8 37 -49 -1 -17 1 -25 4 -18 4 9 11 6 27 -10 20
-21 21 -26 9 -55 -12 -30 -12 -31 12 -28 20 2 30 -6 51 -42 20 -36 23 -47 13
-59 -6 -8 -9 -17 -5 -21 3 -4 13 2 22 13 8 10 13 14 10 8 -3 -7 1 -17 9 -24 8
-7 15 -18 15 -25 0 -7 9 -24 21 -39 12 -15 18 -34 15 -43 -5 -13 -4 -14 8 -4
11 10 17 6 27 -19 8 -16 18 -30 22 -30 5 0 6 -4 3 -8 -3 -5 3 -18 13 -28 9
-11 15 -26 13 -33 -3 -8 0 -11 5 -8 6 4 18 -13 27 -37 9 -24 28 -56 41 -71 14
-14 33 -43 44 -63 34 -69 51 -97 51 -87 0 6 10 -11 22 -37 11 -27 24 -48 29
-48 5 0 9 -5 9 -11 0 -6 -10 -8 -22 -5 -13 3 -17 3 -10 0 6 -3 10 -10 6 -15
-3 -5 0 -9 5 -9 6 0 10 -10 8 -22 -1 -16 3 -23 15 -22 10 1 16 -1 15 -5 -3 -9
36 -46 56 -54 19 -7 23 8 6 19 -6 3 -18 22 -26 42 -11 26 -17 32 -26 23 -6 -6
-18 -11 -27 -11 -12 1 -11 4 4 15 19 15 19 16 -5 67 -13 29 -30 59 -36 66 -7
7 -13 17 -13 22 0 9 -40 73 -60 98 -6 6 -9 12 -6 12 3 0 -95 168 -218 373
-123 204 -283 473 -357 597 -73 124 -136 227 -141 228 -4 2 -8 8 -8 13 0 4
-42 76 -92 159 -51 84 -101 166 -112 183 -10 18 -22 34 -27 35 -5 2 -7 7 -4
12 2 4 -4 18 -15 30 -11 13 -20 27 -20 33 0 5 -28 52 -62 103 -60 91 -87 118
-72 72z"/>
<path d="M6235 5704 c-52 -26 -76 -41 -78 -50 -1 -5 -15 -20 -32 -33 -52 -42
-125 -115 -125 -125 0 -5 7 -1 16 10 14 18 15 18 4 -3 -6 -13 -16 -24 -23 -25
-7 0 -17 -2 -24 -2 -19 -2 -53 -38 -46 -49 3 -5 2 -7 -4 -4 -6 4 -45 -29 -87
-72 l-76 -79 2 -1194 3 -1193 23 -30 c43 -57 384 -349 444 -382 25 -14 64 -19
163 -23 84 -3 130 -9 130 -16 0 -6 -34 -40 -75 -75 -41 -35 -90 -80 -110 -100
-19 -20 -71 -63 -115 -95 -44 -32 -102 -76 -130 -99 -178 -148 -625 -469 -680
-489 -18 -6 -18 -8 -4 -16 9 -5 99 -37 200 -70 454 -150 1021 -272 1444 -310
72 -6 154 -15 183 -19 36 -6 57 -5 63 3 5 6 85 142 176 301 91 160 197 343
236 409 38 65 109 187 156 270 48 83 143 246 211 361 128 218 485 829 692
1184 65 112 130 230 144 263 29 69 54 182 54 244 l0 44 -139 0 c-139 0 -176
-5 -166 -21 3 -4 -31 -27 -76 -49 -44 -23 -104 -57 -132 -77 -56 -39 -205
-149 -249 -183 -15 -12 -33 -18 -39 -14 -7 4 -9 3 -6 -3 9 -15 -132 -135 -150
-128 -10 3 -13 1 -10 -9 4 -10 -9 -28 -36 -50 l-41 -34 -34 34 c-36 37 -52 43
-52 19 0 -14 -3 -13 -25 2 -18 14 -24 27 -25 56 0 26 -4 37 -15 37 -11 0 -15
11 -15 40 0 40 0 40 -39 40 -22 0 -41 -5 -43 -12 -3 -9 -6 -9 -12 0 -4 7 -2
12 3 12 6 0 11 18 11 40 l0 40 -40 0 -40 0 0 40 c0 36 3 40 25 40 23 0 25 4
25 40 0 25 -5 40 -12 41 -7 1 1 5 17 9 29 8 29 8 7 15 -18 6 -20 10 -10 16 8
5 -16 9 -59 9 -42 0 -73 4 -73 10 0 6 119 11 333 12 l332 3 -310 5 c-205 3
-276 7 -210 10 55 3 -56 7 -247 8 -227 1 -348 -1 -348 -8 0 -5 0 -129 0 -275
0 -146 0 -269 0 -275 0 -6 67 -10 180 -10 l180 0 0 -217 0 -218 -77 -72 -78
-73 -306 0 -306 0 -47 35 -46 36 0 893 0 893 45 42 45 41 333 0 c290 0 334 2
334 15 0 8 -4 15 -9 15 -4 0 -8 -4 -8 -10 0 -5 -5 -10 -11 -10 -5 0 -7 5 -4
10 6 9 -278 17 -372 11 -18 -2 -33 2 -33 8 0 7 39 11 115 11 l115 0 0 45 c0
45 0 45 -40 51 l-40 7 0 63 0 64 -80 0 c-64 0 -80 3 -80 15 0 11 11 15 40 15
39 0 40 1 40 34 0 33 -1 33 -52 40 -29 3 -72 6 -95 6 l-43 0 0 40 c0 22 -4 40
-10 40 -5 0 -10 18 -10 40 0 36 3 40 25 40 18 0 25 5 25 19 0 16 -8 20 -37 23
-34 3 -38 6 -38 31 l1 27 -106 2 -105 1 95 8 c52 4 104 6 115 4 13 -1 15 0 5
4 -8 3 26 9 75 12 50 3 -52 6 -225 7 -261 1 -320 -1 -345 -14z"/>
<path d="M830 5279 c0 -11 4 -18 8 -15 19 12 -2 -61 -24 -82 -30 -28 -32 -7
-3 24 22 24 20 54 -3 54 -10 0 -9 -3 1 -9 12 -8 12 -12 -2 -25 -9 -9 -20 -17
-24 -16 -4 0 -8 -6 -8 -13 0 -8 -8 -22 -18 -31 -9 -10 -17 -24 -17 -32 0 -8
-5 -14 -11 -14 -5 0 -7 -4 -4 -10 3 -5 2 -10 -4 -10 -10 0 -247 -391 -312
-516 -54 -104 -72 -199 -67 -347 9 -207 2 -193 380 -832 335 -567 691 -1174
871 -1485 72 -124 152 -263 180 -310 27 -47 95 -166 151 -265 118 -207 303
-528 381 -660 101 -171 241 -293 428 -369 165 -69 108 -67 1812 -65 842 0
1540 3 1553 6 37 9 25 20 -30 27 -78 10 -331 74 -423 107 -205 72 -527 233
-740 369 -279 179 -573 381 -648 446 -12 11 -105 83 -206 160 -101 76 -204
154 -228 173 -37 28 -47 32 -55 20 -8 -11 -9 -11 -5 3 4 12 -15 33 -66 74 -40
32 -93 75 -119 96 -51 41 -63 47 -54 22 3 -9 2 -12 -5 -9 -5 4 -8 14 -5 23 4
12 -16 33 -66 72 -39 30 -75 54 -80 52 -5 -1 -7 2 -4 7 3 5 -4 16 -17 24 -12
9 -38 30 -57 47 -54 48 -90 72 -90 61 0 -6 -7 -11 -15 -11 -20 0 -19 -16 1
-24 22 -9 24 -8 18 9 -8 20 -2 19 26 -5 l24 -20 -25 2 c-20 3 -25 -2 -27 -25
-3 -25 -7 -27 -46 -27 -26 0 -48 -6 -56 -14 -6 -8 -21 -16 -33 -18 -21 -3 -22
-8 -25 -132 -3 -123 -4 -129 -27 -148 -32 -25 -32 -38 0 -38 16 0 25 -6 25
-15 0 -11 -11 -15 -40 -15 -29 0 -40 4 -40 15 0 9 -9 15 -25 15 -22 0 -25 -4
-25 -40 l0 -40 -40 0 c-22 0 -40 -4 -40 -9 0 -5 -16 -9 -35 -9 -19 0 -35 4
-35 9 0 5 -7 9 -15 9 -8 0 -15 -5 -15 -11 0 -5 -5 -7 -10 -4 -6 4 -8 11 -5 16
4 5 -2 6 -12 2 -16 -6 -17 -5 -3 12 14 16 13 17 -8 11 -26 -9 -28 0 -6 25 15
16 14 17 -4 13 -10 -3 -26 2 -35 10 -20 21 -38 20 -30 0 6 -16 -129 81 -135
98 -2 4 -8 8 -14 8 -19 0 -68 42 -62 52 4 6 2 8 -4 4 -6 -3 -42 20 -80 51 -37
32 -86 72 -107 88 -48 37 -190 161 -270 234 -63 58 -195 179 -293 267 l-56 51
-1 1049 c0 577 -3 1033 -6 1014 -4 -19 -7 41 -8 133 -1 112 2 166 9 162 7 -4
9 36 8 119 -2 77 1 128 7 130 6 3 4 5 -2 5 -7 1 -13 11 -13 24 0 18 -2 19 -10
7 -6 -9 -10 -142 -12 -315 -1 -165 -3 -282 -5 -261 -3 29 -7 36 -14 25 -6 -9
-9 14 -9 67 0 44 -5 85 -11 91 -7 7 -7 13 -1 17 16 9 -9 78 -30 84 -13 3 -18
15 -20 46 -1 39 -1 39 -5 7 -3 -19 1 -44 7 -56 15 -28 9 -147 -7 -153 -10 -3
-13 17 -15 75 -1 43 -3 61 -5 41 -5 -48 -23 -50 -23 -3 0 32 -2 35 -30 35 -26
0 -30 -4 -30 -27 0 -60 -10 -73 -50 -73 -21 0 -41 -6 -43 -12 -4 -9 -14 -4
-31 15 -26 28 -30 49 -26 145 1 39 0 42 -23 42 -14 0 -28 6 -31 13 -5 10 -7
10 -12 0 -3 -7 -12 -13 -19 -13 -7 0 -16 -6 -19 -12 -3 -7 -3 -1 0 15 6 26 5
27 -35 27 -23 0 -41 5 -41 10 0 6 -18 10 -40 10 -29 0 -40 4 -40 15 0 8 7 15
15 15 13 0 13 3 3 22 -7 12 -22 30 -33 40 -12 10 -15 17 -7 18 29 0 9 20 -22
20 -49 0 -82 31 -90 85 -6 34 -3 49 8 60 11 11 15 12 19 2 2 -6 8 -8 13 -4 5
4 2 12 -5 16 -9 6 -11 18 -8 33 7 27 -1 68 -14 68 -5 0 -9 -9 -9 -21z"/>
<path d="M4670 5104 c-8 -2 -118 -15 -244 -29 -126 -14 -235 -30 -243 -36 -18
-16 -17 -43 2 -35 8 3 15 1 15 -4 0 -5 -12 -11 -27 -13 -20 -3 -15 -4 15 -6
l42 -1 0 -112 c0 -62 4 -119 9 -126 8 -14 58 18 170 106 19 15 113 80 209 145
l176 117 -55 -1 c-30 -1 -61 -3 -69 -5z"/>
<path d="M7460 4950 c0 -5 -7 -10 -15 -10 -13 0 -15 -22 -13 -157 l3 -158 170
-1 c168 0 169 0 40 5 l-130 6 1 97 c0 54 -1 97 -2 95 -7 -7 -13 -54 -13 -109
-1 -49 -4 -58 -18 -57 -11 0 -13 3 -5 6 8 3 12 28 11 76 0 50 -3 66 -9 52 -6
-14 -9 3 -11 55 -1 41 -2 83 -1 93 1 9 0 17 -3 17 -3 0 -5 -4 -5 -10z"/>
</g>
</svg>
